<svg width="113" height="36" viewBox="0 0 113 36" fill="none" xmlns="http://www.w3.org/2000/svg">
<path fill-rule="evenodd" clip-rule="evenodd" d="M27.9503 0H25.832C25.3255 0 24.957 0.374512 24.957 0.889467V24.9987C24.957 25.3732 25.2333 25.7477 25.6018 25.8414C25.832 25.935 26.0623 25.9818 26.2925 26.0286C26.4926 26.0656 26.6998 26.1099 26.9142 26.1557L26.9142 26.1557L26.9143 26.1557C27.2428 26.2259 27.5881 26.2997 27.9503 26.3563C28.5029 26.4499 29.1476 26.5436 29.7924 26.5904L29.7924 26.5904C30.4371 26.6372 31.0818 26.684 31.7265 26.684C33.2001 26.684 34.5356 26.4968 35.7329 26.0286C36.9302 25.5605 37.9433 24.9519 38.7722 24.1092C39.6011 23.2666 40.2458 22.2835 40.7063 21.1131C41.1669 19.9428 41.3971 18.632 41.3971 17.2276C41.3971 16.0572 41.2129 14.9805 40.8445 13.9974C40.4761 13.0143 39.9695 12.1717 39.2788 11.4694C38.588 10.7672 37.7591 10.2055 36.792 9.83095C35.825 9.45644 34.7198 9.26918 33.4764 9.26918C33.0999 9.26918 32.7235 9.30781 32.3125 9.34997L32.187 9.36281C31.9798 9.40963 31.761 9.45644 31.5423 9.50326L31.5422 9.50328C31.3235 9.55008 31.1048 9.59689 30.8976 9.64369C30.4831 9.73732 30.0687 9.87777 29.7003 10.0182C29.6051 10.0666 29.5131 10.1118 29.4241 10.1555L29.424 10.1556C29.1684 10.2812 28.9381 10.3943 28.7332 10.5332C28.7332 10.449 28.7425 10.3554 28.7527 10.2523C28.7653 10.126 28.7792 9.98558 28.7792 9.83095C28.8253 9.55007 28.8253 9.26918 28.8253 8.94148V8.05202V7.34981V0.889467C28.8253 0.374512 28.4108 0 27.9503 0ZM29.35 23.5844C29.1685 23.5527 28.9922 23.5219 28.8253 23.5007V13.342C28.933 13.2873 29.0407 13.2254 29.1512 13.1619L29.1512 13.1619C29.3241 13.0627 29.5036 12.9596 29.7003 12.8739C29.7804 12.8433 29.8583 12.8128 29.935 12.7827L29.9352 12.7826L29.9352 12.7826C30.2112 12.6745 30.4712 12.5726 30.7594 12.4994L30.7595 12.4993C31.1278 12.4057 31.4962 12.3121 31.8646 12.2653L31.8647 12.2653C32.2331 12.2185 32.6014 12.1717 32.8777 12.1717C33.5225 12.1717 34.1672 12.2653 34.7198 12.4994C35.3184 12.7334 35.7789 13.0611 36.1934 13.4824C36.6078 13.9506 36.9302 14.4655 37.1604 15.1209C37.3907 15.7763 37.5289 16.5254 37.5289 17.368C37.5289 18.2107 37.4368 19.0065 37.2065 19.7555C36.9762 20.5514 36.6078 21.2068 36.1473 21.8153C35.6408 22.3771 35.0421 22.8453 34.2593 23.2198C33.4764 23.5943 32.5093 23.7815 31.4041 23.7815C30.8976 23.7815 30.4371 23.7347 30.0226 23.6879C29.7959 23.6623 29.5692 23.6227 29.3501 23.5844L29.35 23.5844L29.35 23.5844ZM23.6217 17.9298C23.6217 19.2406 23.3914 20.4578 23.023 21.5345C22.6085 22.6112 22.0099 23.5475 21.2731 24.2965C20.4902 25.0455 19.5692 25.6541 18.51 26.0755C17.4048 26.4968 16.2075 26.684 14.826 26.684C13.5366 26.684 12.3393 26.4968 11.2801 26.0755C10.2209 25.6541 9.29993 25.0924 8.56312 24.3433C7.82631 23.5943 7.22765 22.7048 6.8132 21.6281C6.39874 20.5514 6.21454 19.381 6.21454 18.0703C6.21454 16.6658 6.39874 15.4019 6.8132 14.3251C7.22765 13.2016 7.82631 12.3121 8.60917 11.5163C9.39203 10.7673 10.3591 10.1587 11.4643 9.78417C12.5695 9.36284 13.8589 9.17558 15.2405 9.17558C16.5759 9.17558 17.7732 9.36284 18.8324 9.78417C19.8916 10.1587 20.7665 10.7673 21.4573 11.5163C22.1941 12.2653 22.7006 13.1548 23.0691 14.2315C23.4375 15.355 23.6217 16.5722 23.6217 17.9298ZM19.7534 17.9298C19.7534 16.1041 19.339 14.6996 18.5561 13.7634C17.7732 12.8271 16.5759 12.3589 15.0563 12.3589C13.4905 12.3589 12.2932 12.8271 11.4183 13.8102C10.5433 14.7933 10.1288 16.1977 10.1288 18.0234C10.1288 18.9129 10.2209 19.7087 10.4512 20.411C10.6814 21.1132 11.0038 21.7217 11.4183 22.1899C11.8327 22.658 12.3853 23.0325 12.984 23.3134C13.5826 23.5943 14.2734 23.6879 15.0563 23.6879C16.5759 23.6879 17.7732 23.2198 18.5561 22.2367C19.385 21.2068 19.7534 19.8024 19.7534 17.9298ZM2.11643 9.64371H4.23476C4.69526 9.64371 5.10972 10.0182 5.10972 10.5332V26.0754C5.10972 27.3394 5.06367 28.463 4.92551 29.4929C4.78736 30.5228 4.60316 31.4122 4.41896 32.2549C4.1887 33.0975 3.95845 33.7998 3.68215 34.4083C3.49795 34.8297 3.26769 35.251 3.08349 35.5787C2.94534 35.8596 2.62299 36 2.34668 36H0.873063C0.274406 36 -0.14005 35.4382 0.0441526 34.8297C0.0902032 34.6892 0.136254 34.502 0.182304 34.3147C0.366507 33.6593 0.550709 32.9103 0.688861 32.0676C0.827012 31.225 0.965164 30.2887 1.10332 29.3056C1.19542 28.2757 1.24147 27.199 1.24147 26.0286V10.5332C1.28752 10.0182 1.65592 9.64371 2.11643 9.64371ZM83.5799 26.3562H81.4616C80.955 26.3562 80.5866 25.9348 80.5866 25.4667V16.0103C80.5866 14.8399 80.3564 13.9036 79.8959 13.295C79.4354 12.6865 78.7907 12.3588 77.8697 12.3588C77.4552 12.3588 77.0407 12.4056 76.6263 12.546C76.2118 12.6865 75.8434 12.8269 75.475 13.0142C75.1066 13.2014 74.7843 13.3887 74.508 13.6227C74.399 13.715 74.2901 13.8 74.1869 13.8806L74.1866 13.8808C74.028 14.0045 73.8827 14.1179 73.7711 14.2313V25.4667C73.7711 25.9816 73.3567 26.3562 72.8962 26.3562H70.8239C70.3634 26.3562 69.949 25.9816 69.949 25.4667V10.4862C69.949 10.0181 70.3174 9.59673 70.8239 9.59673H72.8501C73.3106 9.59673 73.6791 9.97124 73.7251 10.4394L73.7711 11.282L73.8899 11.1811L73.8902 11.1809C74.138 10.97 74.4151 10.7342 74.6922 10.533C75.0606 10.2989 75.429 10.0649 75.8434 9.87761C76.2579 9.69035 76.7184 9.54991 77.1789 9.40947C77.6394 9.26903 78.146 9.22221 78.6525 9.22221C79.8959 9.22221 80.955 9.45628 81.784 9.97124C82.6129 10.4394 83.2576 11.1416 83.672 11.9842C83.9944 11.6565 84.3628 11.3288 84.8233 11.0011C85.2377 10.6734 85.6982 10.3926 86.1588 10.1117C86.6653 9.8308 87.2179 9.59673 87.7705 9.45628C88.2771 9.31584 88.7836 9.22221 89.2902 9.22221C91.2704 9.22221 92.744 9.78398 93.665 10.9543C94.586 12.1247 95.0926 13.7632 95.0926 15.8698V25.4667C95.0926 25.9348 94.7242 26.3562 94.2176 26.3562H92.0993C91.6388 26.3562 91.2243 25.9816 91.2243 25.4667V16.0103C91.2243 14.8399 90.9941 13.9036 90.5336 13.295C90.0731 12.6865 89.4283 12.3588 88.5534 12.3588C88.0929 12.3588 87.6784 12.4524 87.2179 12.5928C86.8035 12.7333 86.389 12.9205 86.0667 13.1546C85.6982 13.3887 85.3759 13.6227 85.0996 13.8568L84.4088 14.559C84.4352 14.6395 84.4465 14.7508 84.46 14.884L84.46 14.8841C84.47 14.9833 84.4813 15.0946 84.5009 15.2144C84.5009 15.369 84.5149 15.5095 84.5274 15.6357C84.5377 15.7388 84.547 15.8325 84.547 15.9166V25.5135C84.4088 25.9816 84.0404 26.3562 83.5799 26.3562ZM96.7958 14.325C96.3353 15.4017 96.1511 16.5721 96.1511 17.8829C96.1511 19.2873 96.3353 20.5045 96.7958 21.628C97.1642 22.7047 97.7629 23.641 98.4997 24.39C99.2365 25.1391 100.158 25.7008 101.217 26.1221C102.276 26.5435 103.473 26.7307 104.809 26.7307C106.282 26.7307 107.526 26.5903 108.677 26.2626C109.644 26.0285 110.565 25.654 111.44 25.1859C111.716 25.0454 111.9 24.7177 111.9 24.2496V23.3601C111.9 22.7047 111.256 22.2834 110.657 22.5643C110.588 22.5877 110.53 22.6111 110.473 22.6345C110.415 22.6579 110.358 22.6813 110.289 22.7047C109.736 22.9388 109.184 23.126 108.631 23.3133L108.631 23.3133L108.631 23.3133C108.078 23.4538 107.526 23.5942 107.019 23.6878C106.512 23.7814 106.006 23.8283 105.545 23.8283C104.717 23.8283 103.98 23.6878 103.335 23.4537C102.69 23.2197 102.138 22.892 101.631 22.4707C101.171 22.0493 100.756 21.5812 100.48 20.9726C100.158 20.4108 99.9733 19.7554 99.9273 19.0532H111.624C112.085 19.0532 112.499 18.6787 112.499 18.1638V17.3679C112.499 16.1039 112.315 14.9336 111.993 13.9505C111.67 12.9674 111.164 12.1247 110.519 11.4225C109.874 10.7203 109.091 10.2054 108.124 9.83086C107.203 9.45634 106.098 9.26909 104.809 9.26909C103.473 9.26909 102.322 9.45635 101.263 9.87767C100.204 10.2522 99.2826 10.8608 98.5457 11.6098C97.8089 12.3588 97.2103 13.2483 96.7958 14.325ZM101.585 13.2951C102.368 12.6397 103.427 12.312 104.717 12.312C105.96 12.312 106.881 12.6397 107.572 13.2951C108.216 13.9505 108.631 14.9336 108.677 16.1976H99.9733C100.25 14.9336 100.756 13.9505 101.585 13.2951Z" fill="white"/>
<path d="M51.6211 25.4209C51.6211 25.7954 51.3909 26.1231 51.0685 26.2635C50.7461 26.404 50.3777 26.4976 50.0093 26.5444C49.3646 26.6849 48.7199 26.7317 47.9831 26.7317C46.3713 26.7317 45.2201 26.2635 44.5293 25.3741C43.8386 24.4846 43.4702 23.127 43.4702 21.2544V12.3129H41.2597C40.7532 12.3129 40.3848 11.8916 40.3848 11.4235V10.534C40.3848 10.0191 40.7992 9.64454 41.2597 9.64454H43.6083C43.8386 8.94233 44.0688 8.1933 44.2991 7.39747C44.4833 6.8357 44.6214 6.32074 44.7596 5.80579C44.8517 5.43127 45.2201 5.15039 45.5885 5.15039H46.4174C46.924 5.15039 47.2924 5.57172 47.2924 6.03986V9.59773H51.0225C51.529 9.59773 51.8974 10.0191 51.8974 10.4872V11.3767C51.8974 11.8916 51.483 12.2661 51.0225 12.2661H47.3384V21.8162C47.3384 22.378 47.4766 22.8929 47.7989 23.2206C48.0752 23.5951 48.5357 23.7824 49.0883 23.7824C49.5949 23.7824 50.0554 23.7356 50.4698 23.6888C50.5619 23.6888 50.608 23.6888 50.7001 23.6419C51.2067 23.5951 51.6672 23.9696 51.6672 24.5314L51.6211 25.4209Z" fill="white"/>
<path d="M68.6142 17.93C68.6142 19.2408 68.3839 20.458 68.0155 21.5347C67.601 22.6114 67.0024 23.5477 66.2656 24.2967C65.4827 25.0457 64.5617 25.6543 63.5025 26.0757C62.3973 26.497 61.2 26.6842 59.8185 26.6842C58.5291 26.6842 57.3318 26.497 56.2726 26.0757C55.2134 25.6543 54.2924 25.0926 53.5556 24.3435C52.8188 23.5945 52.2201 22.705 51.8057 21.6283C51.3912 20.5516 51.207 19.3812 51.207 18.0704C51.207 16.666 51.3912 15.402 51.8057 14.3253C52.2201 13.2018 52.8188 12.3123 53.6017 11.5165C54.3845 10.7675 55.3516 10.1589 56.4568 9.78436C57.562 9.36304 58.8514 9.17578 60.2329 9.17578C61.5684 9.17578 62.7657 9.36304 63.8249 9.78436C64.8841 10.1589 65.759 10.7675 66.4498 11.5165C67.1866 12.2655 67.6931 13.155 68.0616 14.2317C68.43 15.3552 68.6142 16.5724 68.6142 17.93ZM64.7459 17.93C64.7459 16.1043 64.3315 14.6998 63.5486 13.7636C62.7657 12.8273 61.5684 12.3591 60.0487 12.3591C58.483 12.3591 57.2857 12.8273 56.4107 13.8104C55.5358 14.7935 55.1213 16.1979 55.1213 18.0236C55.1213 18.9131 55.2134 19.7089 55.4437 20.4112C55.6739 21.1134 55.9963 21.7219 56.4107 22.1901C56.8252 22.6582 57.3778 23.0327 57.9765 23.3136C58.5751 23.5945 59.2659 23.6881 60.0487 23.6881C61.5684 23.6881 62.7657 23.22 63.5486 22.2369C64.3315 21.207 64.7459 19.8026 64.7459 17.93Z" fill="white"/>
<path d="M5.66248 7.53633H0.735072C0.458769 7.53633 0.228516 7.30226 0.228516 7.02137V2.94855C0.228516 2.66766 0.458769 2.43359 0.735072 2.43359H5.66248C5.93879 2.43359 6.16904 2.66766 6.16904 2.94855V7.02137C6.16904 7.30226 5.93879 7.53633 5.66248 7.53633Z" fill="#DD0055"/>
</svg>
